<svg width="500" height="500" viewBox="0 0 500 500" fill="none" xmlns="http://www.w3.org/2000/svg">
<circle cx="250" cy="250" r="250" fill="#18181B"/>
<path d="M233.909 296.091H272.545L304.932 338.705L313.455 350.068L361.75 414.273H323.114L291.295 371.659L283.341 360.864L233.909 296.091ZM373.682 241.545C373.682 272.227 368.142 298.742 357.062 321.091C345.983 343.439 330.784 360.674 311.466 372.795C292.148 384.917 270.083 390.977 245.273 390.977C220.462 390.977 198.398 384.917 179.08 372.795C159.761 360.674 144.563 343.439 133.483 321.091C122.403 298.742 116.864 272.227 116.864 241.545C116.864 210.864 122.403 184.348 133.483 162C144.563 139.652 159.761 122.417 179.08 110.295C198.398 98.1742 220.462 92.1136 245.273 92.1136C270.083 92.1136 292.148 98.1742 311.466 110.295C330.784 122.417 345.983 139.652 357.062 162C368.142 184.348 373.682 210.864 373.682 241.545ZM339.591 241.545C339.591 216.356 335.377 195.097 326.949 177.767C318.616 160.438 307.299 147.322 293 138.42C278.795 129.519 262.886 125.068 245.273 125.068C227.659 125.068 211.703 129.519 197.403 138.42C183.199 147.322 171.883 160.438 163.455 177.767C155.121 195.097 150.955 216.356 150.955 241.545C150.955 266.735 155.121 287.994 163.455 305.324C171.883 322.653 183.199 335.769 197.403 344.67C211.703 353.572 227.659 358.023 245.273 358.023C262.886 358.023 278.795 353.572 293 344.67C307.299 335.769 318.616 322.653 326.949 305.324C335.377 287.994 339.591 266.735 339.591 241.545Z" fill="#5AE8F9"/>
</svg>
